<?xml version="1.0" encoding="UTF-8" standalone="no"?>
<!-- Created with Inkscape (http://www.inkscape.org/) -->

<svg
   width="203.53401mm"
   height="203.39049mm"
   viewBox="0 0 203.53401 203.39049"
   version="1.1"
   id="svg1"
   xml:space="preserve"
   sodipodi:docname="GVU Icon v2.svg"
   inkscape:version="1.4.3 (0d15f75042, 2025-12-25)"
   xmlns:inkscape="http://www.inkscape.org/namespaces/inkscape"
   xmlns:sodipodi="http://sodipodi.sourceforge.net/DTD/sodipodi-0.dtd"
   xmlns="http://www.w3.org/2000/svg"
   xmlns:svg="http://www.w3.org/2000/svg"><sodipodi:namedview
     id="namedview1"
     pagecolor="#ffffff"
     bordercolor="#000000"
     borderopacity="0.25"
     inkscape:showpageshadow="2"
     inkscape:pageopacity="0.0"
     inkscape:pagecheckerboard="0"
     inkscape:deskcolor="#d1d1d1"
     inkscape:document-units="mm"
     inkscape:zoom="0.95822322"
     inkscape:cx="341.7784"
     inkscape:cy="443.52922"
     inkscape:window-width="1707"
     inkscape:window-height="993"
     inkscape:window-x="0"
     inkscape:window-y="0"
     inkscape:window-maximized="1"
     inkscape:current-layer="layer1" /><defs
     id="defs1"><marker
       id="DistanceX"
       orient="auto"
       refX="0"
       refY="0"
       style="overflow:visible"><path
         d="M 3,-3 -3,3 M 0,-5 V 5"
         style="stroke:#000000;stroke-width:0.5"
         id="path1" /></marker><pattern
       id="Hatch"
       patternUnits="userSpaceOnUse"
       width="8"
       height="8"
       x="0"
       y="0"><path
         d="M8 4 l-4,4"
         stroke="#000000"
         stroke-width="0.25"
         linecap="square"
         id="path2" /><path
         d="M6 2 l-4,4"
         stroke="#000000"
         stroke-width="0.25"
         linecap="square"
         id="path3" /><path
         d="M4 0 l-4,4"
         stroke="#000000"
         stroke-width="0.25"
         linecap="square"
         id="path4" /></pattern><symbol
       id="*MODEL_SPACE" /><symbol
       id="*PAPER_SPACE" /></defs><g
     inkscape:label="Layer 1"
     inkscape:groupmode="layer"
     id="layer1"
     transform="translate(-2.6077622,-44.674946)"><path
       id="Ring_Outer_Outline"
       style="display:inline;fill:#666666;fill-opacity:1;stroke:#000000;stroke-width:0;stroke-dasharray:none"
       inkscape:label="Ring Outer Outline"
       d="M 97.448832,45.184839 A 101.49854,101.49854 0 0 0 2.8763102,146.42982 a 101.49854,101.49854 0 0 0 202.9969098,0 A 101.49854,101.49854 0 0 0 97.448832,45.184839 Z m 0.692464,10.122896 a 91.348682,91.348682 0 0 1 97.582154,91.122085 91.348688,91.348688 0 0 1 -182.697372,0 91.348682,91.348682 0 0 1 85.115218,-91.122085 z" /><path
       id="path12"
       style="display:inline;fill:#9dac93;fill-opacity:1;stroke-width:0.793701;stroke-dasharray:none"
       inkscape:label="Center Circle Fill"
       d="m 373.54493,247.25782 a 306.89322,306.89322 0 0 0 -285.951179,306.17773 306.89356,306.89356 0 0 0 613.787119,0 306.89322,306.89322 0 0 0 -327.83594,-306.17773 z"
       transform="scale(0.26458333)" /><path
       id="Right_Arrow_Outline"
       style="display:inline;fill:#cccccc;stroke:#000000;stroke-width:0;stroke-dasharray:none"
       inkscape:label="Right Arrow Outline"
       d="m 133.14587,101.75606 -8.71678,8.71472 -8.71626,8.71471 17.95652,17.95756 c 9.87636,9.87686 17.95705,18.10004 17.95705,18.2733 0,0.17327 -8.0802,8.39438 -17.95601,18.26969 l -17.95601,17.95549 4.14548,4.1491 c 2.27986,2.28201 4.19345,4.1491 4.25245,4.1491 0.059,0 12.15675,-12.04995 26.88415,-26.77769 l 26.77718,-26.77769 -22.31389,-22.3144 z" /><path
       id="path61"
       style="display:inline;fill:#cccccc;stroke:#000000;stroke-width:0;stroke-dasharray:none"
       inkscape:label="Left Arrow"
       d="m 63.435405,101.75606 -8.71678,8.71472 -8.716264,8.71471 17.957043,17.95756 c 9.876353,9.87686 17.957044,18.0995 17.957044,18.27227 0,0.17277 -8.088053,8.40226 -17.973064,18.28777 l -17.972546,17.97358 4.256071,4.14394 4.256071,4.14445 26.790613,-26.79062 26.790097,-26.79009 -22.314401,-22.3144 z" /><path
       id="path66"
       style="display:inline;fill:#5d6c53;stroke:#000000;stroke-width:0;stroke-dasharray:none;stroke-opacity:1"
       inkscape:label="Center Arrow"
       d="m 98.290641,101.75606 -8.71678,8.71472 -8.716264,8.71471 17.957043,17.95756 c 9.87635,9.87686 17.95704,18.10004 17.95704,18.2733 0,0.17327 -8.08071,8.39438 -17.956523,18.26969 l -17.95601,17.95549 4.145484,4.1491 c 2.279861,2.28201 4.193443,4.1491 4.252453,4.1491 0.05901,0 12.156746,-12.04995 26.884146,-26.77769 l 26.77718,-26.77769 -22.31389,-22.3144 z" /></g></svg>
