<svg id="Layer_1" data-name="Layer 1" xmlns="http://www.w3.org/2000/svg" viewBox="0 0 512 512"><title>video-flat</title><path fill="#dde5e8" d="M460.8,153.6V448a64,64,0,0,1-64,64H115.2a64,64,0,0,1-64-64V64a64,64,0,0,1,64-64H307.33l33.41,33.41Z"/><path fill="#71c6c4" d="M460.8,153.6H371.2a64,64,0,0,1-64-64V0h.13Z"/><g opacity="0.06"><path fill="#17292d" d="M371.2,153.6a64,64,0,0,1-64-64v25.6a64,64,0,0,0,64,64h89.6V153.6Z"/></g><rect fill="#afc3c9" x="153.6" y="243.2" width="204.8" height="179.2" rx="32" ry="32"/><path fill="#ffffff" d="M230.4,313.17v39.27a6,6,0,0,0,8.63,5.33l39.28-19.63a6,6,0,0,0,0-10.66L239,307.84A6,6,0,0,0,230.4,313.17Z"/></svg>
